<mxfile host="Electron" modified="2024-03-14T09:44:30.110Z" agent="Mozilla/5.0 (Windows NT 10.0; Win64; x64) AppleWebKit/537.36 (KHTML, like Gecko) draw.io/24.0.4 Chrome/120.0.6099.109 Electron/28.1.0 Safari/537.36" etag="WblsO6eZBagbv4rmL0N8" version="24.0.4" type="device">
  <diagram name="Pagina-1" id="lk-OH2nAd6VcckS-gfQF">
    <mxGraphModel dx="2427" dy="967" grid="1" gridSize="10" guides="1" tooltips="1" connect="1" arrows="1" fold="1" page="1" pageScale="1" pageWidth="827" pageHeight="1169" math="0" shadow="0">
      <root>
        <mxCell id="0" />
        <mxCell id="1" parent="0" />
        <mxCell id="M5AuZvBzM9_U9Xt27ztr-15" style="edgeStyle=orthogonalEdgeStyle;rounded=0;orthogonalLoop=1;jettySize=auto;html=1;exitX=0;exitY=0.5;exitDx=0;exitDy=0;entryX=1;entryY=0.5;entryDx=0;entryDy=0;" parent="1" source="M5AuZvBzM9_U9Xt27ztr-2" target="M5AuZvBzM9_U9Xt27ztr-11" edge="1">
          <mxGeometry relative="1" as="geometry" />
        </mxCell>
        <mxCell id="M5AuZvBzM9_U9Xt27ztr-26" style="edgeStyle=orthogonalEdgeStyle;rounded=0;orthogonalLoop=1;jettySize=auto;html=1;exitX=0.5;exitY=1;exitDx=0;exitDy=0;entryX=0.5;entryY=0;entryDx=0;entryDy=0;endArrow=doubleBlock;endFill=1;" parent="1" source="M5AuZvBzM9_U9Xt27ztr-2" target="M5AuZvBzM9_U9Xt27ztr-7" edge="1">
          <mxGeometry relative="1" as="geometry" />
        </mxCell>
        <mxCell id="M5AuZvBzM9_U9Xt27ztr-47" style="edgeStyle=orthogonalEdgeStyle;rounded=0;orthogonalLoop=1;jettySize=auto;html=1;exitX=0.25;exitY=0;exitDx=0;exitDy=0;entryX=0;entryY=0.5;entryDx=0;entryDy=0;" parent="1" source="M5AuZvBzM9_U9Xt27ztr-2" target="M5AuZvBzM9_U9Xt27ztr-41" edge="1">
          <mxGeometry relative="1" as="geometry">
            <Array as="points">
              <mxPoint x="240" y="125" />
            </Array>
          </mxGeometry>
        </mxCell>
        <mxCell id="M5AuZvBzM9_U9Xt27ztr-48" style="edgeStyle=orthogonalEdgeStyle;rounded=0;orthogonalLoop=1;jettySize=auto;html=1;exitX=0.25;exitY=0;exitDx=0;exitDy=0;entryX=0;entryY=0.5;entryDx=0;entryDy=0;" parent="1" source="M5AuZvBzM9_U9Xt27ztr-2" target="M5AuZvBzM9_U9Xt27ztr-40" edge="1">
          <mxGeometry relative="1" as="geometry">
            <Array as="points">
              <mxPoint x="240" y="95" />
            </Array>
          </mxGeometry>
        </mxCell>
        <mxCell id="M5AuZvBzM9_U9Xt27ztr-49" style="edgeStyle=orthogonalEdgeStyle;rounded=0;orthogonalLoop=1;jettySize=auto;html=1;exitX=0.25;exitY=0;exitDx=0;exitDy=0;entryX=0;entryY=0.5;entryDx=0;entryDy=0;" parent="1" source="M5AuZvBzM9_U9Xt27ztr-2" target="M5AuZvBzM9_U9Xt27ztr-39" edge="1">
          <mxGeometry relative="1" as="geometry">
            <Array as="points">
              <mxPoint x="240" y="65" />
            </Array>
          </mxGeometry>
        </mxCell>
        <mxCell id="M5AuZvBzM9_U9Xt27ztr-50" style="edgeStyle=orthogonalEdgeStyle;rounded=0;orthogonalLoop=1;jettySize=auto;html=1;exitX=0.25;exitY=0;exitDx=0;exitDy=0;entryX=0;entryY=0.5;entryDx=0;entryDy=0;" parent="1" source="M5AuZvBzM9_U9Xt27ztr-2" target="M5AuZvBzM9_U9Xt27ztr-45" edge="1">
          <mxGeometry relative="1" as="geometry">
            <Array as="points">
              <mxPoint x="240" y="35" />
            </Array>
          </mxGeometry>
        </mxCell>
        <mxCell id="M5AuZvBzM9_U9Xt27ztr-2" value="CAMERA" style="rounded=0;whiteSpace=wrap;html=1;" parent="1" vertex="1">
          <mxGeometry x="210" y="170" width="120" height="60" as="geometry" />
        </mxCell>
        <mxCell id="M5AuZvBzM9_U9Xt27ztr-27" style="edgeStyle=orthogonalEdgeStyle;rounded=0;orthogonalLoop=1;jettySize=auto;html=1;exitX=0.5;exitY=0;exitDx=0;exitDy=0;entryX=0.5;entryY=1;entryDx=0;entryDy=0;endArrow=doubleBlock;endFill=1;" parent="1" source="M5AuZvBzM9_U9Xt27ztr-4" target="M5AuZvBzM9_U9Xt27ztr-7" edge="1">
          <mxGeometry relative="1" as="geometry" />
        </mxCell>
        <mxCell id="M5AuZvBzM9_U9Xt27ztr-65" style="edgeStyle=orthogonalEdgeStyle;rounded=0;orthogonalLoop=1;jettySize=auto;html=1;exitX=0.25;exitY=1;exitDx=0;exitDy=0;entryX=0;entryY=0.5;entryDx=0;entryDy=0;" parent="1" source="M5AuZvBzM9_U9Xt27ztr-4" target="M5AuZvBzM9_U9Xt27ztr-61" edge="1">
          <mxGeometry relative="1" as="geometry" />
        </mxCell>
        <mxCell id="M5AuZvBzM9_U9Xt27ztr-66" style="edgeStyle=orthogonalEdgeStyle;rounded=0;orthogonalLoop=1;jettySize=auto;html=1;exitX=0.25;exitY=1;exitDx=0;exitDy=0;entryX=0;entryY=0.5;entryDx=0;entryDy=0;" parent="1" source="M5AuZvBzM9_U9Xt27ztr-4" target="M5AuZvBzM9_U9Xt27ztr-57" edge="1">
          <mxGeometry relative="1" as="geometry" />
        </mxCell>
        <mxCell id="M5AuZvBzM9_U9Xt27ztr-67" style="edgeStyle=orthogonalEdgeStyle;rounded=0;orthogonalLoop=1;jettySize=auto;html=1;exitX=0.25;exitY=1;exitDx=0;exitDy=0;entryX=0;entryY=0.5;entryDx=0;entryDy=0;" parent="1" source="M5AuZvBzM9_U9Xt27ztr-4" target="M5AuZvBzM9_U9Xt27ztr-58" edge="1">
          <mxGeometry relative="1" as="geometry" />
        </mxCell>
        <mxCell id="M5AuZvBzM9_U9Xt27ztr-68" style="edgeStyle=orthogonalEdgeStyle;rounded=0;orthogonalLoop=1;jettySize=auto;html=1;exitX=0.25;exitY=1;exitDx=0;exitDy=0;entryX=0;entryY=0.5;entryDx=0;entryDy=0;" parent="1" source="M5AuZvBzM9_U9Xt27ztr-4" target="M5AuZvBzM9_U9Xt27ztr-63" edge="1">
          <mxGeometry relative="1" as="geometry" />
        </mxCell>
        <mxCell id="M5AuZvBzM9_U9Xt27ztr-4" value="CLIENTE" style="rounded=0;whiteSpace=wrap;html=1;" parent="1" vertex="1">
          <mxGeometry x="210" y="420" width="120" height="60" as="geometry" />
        </mxCell>
        <mxCell id="M5AuZvBzM9_U9Xt27ztr-25" style="edgeStyle=orthogonalEdgeStyle;rounded=0;orthogonalLoop=1;jettySize=auto;html=1;exitX=0.5;exitY=0;exitDx=0;exitDy=0;entryX=0.5;entryY=1;entryDx=0;entryDy=0;" parent="1" source="M5AuZvBzM9_U9Xt27ztr-5" target="M5AuZvBzM9_U9Xt27ztr-18" edge="1">
          <mxGeometry relative="1" as="geometry" />
        </mxCell>
        <mxCell id="M5AuZvBzM9_U9Xt27ztr-90" style="edgeStyle=orthogonalEdgeStyle;rounded=0;orthogonalLoop=1;jettySize=auto;html=1;exitX=0.25;exitY=1;exitDx=0;exitDy=0;entryX=0;entryY=0.5;entryDx=0;entryDy=0;" parent="1" source="M5AuZvBzM9_U9Xt27ztr-5" target="M5AuZvBzM9_U9Xt27ztr-84" edge="1">
          <mxGeometry relative="1" as="geometry" />
        </mxCell>
        <mxCell id="M5AuZvBzM9_U9Xt27ztr-91" style="edgeStyle=orthogonalEdgeStyle;rounded=0;orthogonalLoop=1;jettySize=auto;html=1;exitX=0.25;exitY=1;exitDx=0;exitDy=0;entryX=0;entryY=0.5;entryDx=0;entryDy=0;" parent="1" source="M5AuZvBzM9_U9Xt27ztr-5" target="M5AuZvBzM9_U9Xt27ztr-85" edge="1">
          <mxGeometry relative="1" as="geometry" />
        </mxCell>
        <mxCell id="M5AuZvBzM9_U9Xt27ztr-92" style="edgeStyle=orthogonalEdgeStyle;rounded=0;orthogonalLoop=1;jettySize=auto;html=1;exitX=0.25;exitY=1;exitDx=0;exitDy=0;entryX=0;entryY=0.5;entryDx=0;entryDy=0;" parent="1" source="M5AuZvBzM9_U9Xt27ztr-5" target="M5AuZvBzM9_U9Xt27ztr-88" edge="1">
          <mxGeometry relative="1" as="geometry" />
        </mxCell>
        <mxCell id="M5AuZvBzM9_U9Xt27ztr-95" style="edgeStyle=orthogonalEdgeStyle;rounded=0;orthogonalLoop=1;jettySize=auto;html=1;exitX=0.25;exitY=1;exitDx=0;exitDy=0;entryX=0;entryY=0.5;entryDx=0;entryDy=0;" parent="1" source="M5AuZvBzM9_U9Xt27ztr-5" target="M5AuZvBzM9_U9Xt27ztr-93" edge="1">
          <mxGeometry relative="1" as="geometry" />
        </mxCell>
        <mxCell id="M5AuZvBzM9_U9Xt27ztr-5" value="FACILITIES" style="rounded=0;whiteSpace=wrap;html=1;" parent="1" vertex="1">
          <mxGeometry x="-130" y="420" width="120" height="60" as="geometry" />
        </mxCell>
        <mxCell id="M5AuZvBzM9_U9Xt27ztr-14" style="edgeStyle=orthogonalEdgeStyle;rounded=0;orthogonalLoop=1;jettySize=auto;html=1;exitX=1;exitY=0.5;exitDx=0;exitDy=0;entryX=0;entryY=0.5;entryDx=0;entryDy=0;endArrow=doubleBlock;endFill=1;" parent="1" source="M5AuZvBzM9_U9Xt27ztr-6" target="M5AuZvBzM9_U9Xt27ztr-11" edge="1">
          <mxGeometry relative="1" as="geometry" />
        </mxCell>
        <mxCell id="M5AuZvBzM9_U9Xt27ztr-20" style="edgeStyle=orthogonalEdgeStyle;rounded=0;orthogonalLoop=1;jettySize=auto;html=1;exitX=0;exitY=0.5;exitDx=0;exitDy=0;entryX=1;entryY=0.5;entryDx=0;entryDy=0;endArrow=doubleBlock;endFill=1;" parent="1" source="M5AuZvBzM9_U9Xt27ztr-6" target="M5AuZvBzM9_U9Xt27ztr-19" edge="1">
          <mxGeometry relative="1" as="geometry" />
        </mxCell>
        <mxCell id="M5AuZvBzM9_U9Xt27ztr-23" style="edgeStyle=orthogonalEdgeStyle;rounded=0;orthogonalLoop=1;jettySize=auto;html=1;exitX=0.5;exitY=1;exitDx=0;exitDy=0;entryX=0.5;entryY=0;entryDx=0;entryDy=0;endArrow=doubleBlock;endFill=1;" parent="1" source="M5AuZvBzM9_U9Xt27ztr-6" target="M5AuZvBzM9_U9Xt27ztr-18" edge="1">
          <mxGeometry relative="1" as="geometry" />
        </mxCell>
        <mxCell id="M5AuZvBzM9_U9Xt27ztr-33" style="edgeStyle=orthogonalEdgeStyle;rounded=0;orthogonalLoop=1;jettySize=auto;html=1;exitX=0.25;exitY=0;exitDx=0;exitDy=0;entryX=0;entryY=0.5;entryDx=0;entryDy=0;" parent="1" source="M5AuZvBzM9_U9Xt27ztr-6" target="M5AuZvBzM9_U9Xt27ztr-32" edge="1">
          <mxGeometry relative="1" as="geometry">
            <Array as="points">
              <mxPoint x="-120" y="170" />
              <mxPoint x="-120" y="120" />
            </Array>
          </mxGeometry>
        </mxCell>
        <mxCell id="M5AuZvBzM9_U9Xt27ztr-34" style="edgeStyle=orthogonalEdgeStyle;rounded=0;orthogonalLoop=1;jettySize=auto;html=1;exitX=0.25;exitY=0;exitDx=0;exitDy=0;entryX=0;entryY=0.5;entryDx=0;entryDy=0;" parent="1" source="M5AuZvBzM9_U9Xt27ztr-6" target="M5AuZvBzM9_U9Xt27ztr-31" edge="1">
          <mxGeometry relative="1" as="geometry">
            <Array as="points">
              <mxPoint x="-120" y="170" />
              <mxPoint x="-120" y="90" />
            </Array>
          </mxGeometry>
        </mxCell>
        <mxCell id="M5AuZvBzM9_U9Xt27ztr-35" style="edgeStyle=orthogonalEdgeStyle;rounded=0;orthogonalLoop=1;jettySize=auto;html=1;exitX=0.25;exitY=0;exitDx=0;exitDy=0;entryX=0;entryY=0.5;entryDx=0;entryDy=0;" parent="1" source="M5AuZvBzM9_U9Xt27ztr-6" target="M5AuZvBzM9_U9Xt27ztr-30" edge="1">
          <mxGeometry relative="1" as="geometry">
            <Array as="points">
              <mxPoint x="-120" y="170" />
              <mxPoint x="-120" y="60" />
            </Array>
          </mxGeometry>
        </mxCell>
        <mxCell id="M5AuZvBzM9_U9Xt27ztr-6" value="ALBERGO" style="rounded=0;whiteSpace=wrap;html=1;" parent="1" vertex="1">
          <mxGeometry x="-130" y="170" width="120" height="60" as="geometry" />
        </mxCell>
        <mxCell id="M5AuZvBzM9_U9Xt27ztr-54" style="edgeStyle=orthogonalEdgeStyle;rounded=0;orthogonalLoop=1;jettySize=auto;html=1;exitX=1;exitY=0;exitDx=0;exitDy=0;entryX=0;entryY=0.5;entryDx=0;entryDy=0;" parent="1" source="M5AuZvBzM9_U9Xt27ztr-7" target="M5AuZvBzM9_U9Xt27ztr-51" edge="1">
          <mxGeometry relative="1" as="geometry">
            <Array as="points">
              <mxPoint x="340" y="310" />
              <mxPoint x="340" y="310" />
            </Array>
          </mxGeometry>
        </mxCell>
        <mxCell id="M5AuZvBzM9_U9Xt27ztr-55" style="edgeStyle=orthogonalEdgeStyle;rounded=0;orthogonalLoop=1;jettySize=auto;html=1;exitX=1;exitY=0;exitDx=0;exitDy=0;entryX=0;entryY=0.5;entryDx=0;entryDy=0;" parent="1" source="M5AuZvBzM9_U9Xt27ztr-7" target="M5AuZvBzM9_U9Xt27ztr-52" edge="1">
          <mxGeometry relative="1" as="geometry">
            <Array as="points">
              <mxPoint x="320" y="310" />
              <mxPoint x="320" y="342" />
            </Array>
          </mxGeometry>
        </mxCell>
        <mxCell id="M5AuZvBzM9_U9Xt27ztr-7" value="PRENOTA" style="rhombus;whiteSpace=wrap;html=1;" parent="1" vertex="1">
          <mxGeometry x="230" y="290" width="80" height="80" as="geometry" />
        </mxCell>
        <mxCell id="M5AuZvBzM9_U9Xt27ztr-11" value="CONTIENE" style="rhombus;whiteSpace=wrap;html=1;" parent="1" vertex="1">
          <mxGeometry x="60" y="160" width="80" height="80" as="geometry" />
        </mxCell>
        <mxCell id="M5AuZvBzM9_U9Xt27ztr-16" value="" style="endArrow=none;html=1;rounded=0;" parent="1" edge="1">
          <mxGeometry width="50" height="50" relative="1" as="geometry">
            <mxPoint y="220" as="sourcePoint" />
            <mxPoint y="180" as="targetPoint" />
          </mxGeometry>
        </mxCell>
        <mxCell id="M5AuZvBzM9_U9Xt27ztr-21" style="edgeStyle=orthogonalEdgeStyle;rounded=0;orthogonalLoop=1;jettySize=auto;html=1;exitX=1;exitY=0.5;exitDx=0;exitDy=0;entryX=0;entryY=0.5;entryDx=0;entryDy=0;" parent="1" source="M5AuZvBzM9_U9Xt27ztr-17" target="M5AuZvBzM9_U9Xt27ztr-19" edge="1">
          <mxGeometry relative="1" as="geometry" />
        </mxCell>
        <mxCell id="M5AuZvBzM9_U9Xt27ztr-75" style="edgeStyle=orthogonalEdgeStyle;rounded=0;orthogonalLoop=1;jettySize=auto;html=1;exitX=0.25;exitY=1;exitDx=0;exitDy=0;entryX=0;entryY=0.5;entryDx=0;entryDy=0;" parent="1" source="M5AuZvBzM9_U9Xt27ztr-17" target="M5AuZvBzM9_U9Xt27ztr-69" edge="1">
          <mxGeometry relative="1" as="geometry" />
        </mxCell>
        <mxCell id="M5AuZvBzM9_U9Xt27ztr-76" style="edgeStyle=orthogonalEdgeStyle;rounded=0;orthogonalLoop=1;jettySize=auto;html=1;exitX=0.25;exitY=1;exitDx=0;exitDy=0;entryX=0;entryY=0.5;entryDx=0;entryDy=0;" parent="1" source="M5AuZvBzM9_U9Xt27ztr-17" target="M5AuZvBzM9_U9Xt27ztr-70" edge="1">
          <mxGeometry relative="1" as="geometry" />
        </mxCell>
        <mxCell id="M5AuZvBzM9_U9Xt27ztr-77" style="edgeStyle=orthogonalEdgeStyle;rounded=0;orthogonalLoop=1;jettySize=auto;html=1;exitX=0.25;exitY=1;exitDx=0;exitDy=0;entryX=0;entryY=0.5;entryDx=0;entryDy=0;" parent="1" source="M5AuZvBzM9_U9Xt27ztr-17" target="M5AuZvBzM9_U9Xt27ztr-73" edge="1">
          <mxGeometry relative="1" as="geometry" />
        </mxCell>
        <mxCell id="M5AuZvBzM9_U9Xt27ztr-82" style="edgeStyle=orthogonalEdgeStyle;rounded=0;orthogonalLoop=1;jettySize=auto;html=1;exitX=0.25;exitY=1;exitDx=0;exitDy=0;entryX=0;entryY=0.5;entryDx=0;entryDy=0;" parent="1" source="M5AuZvBzM9_U9Xt27ztr-17" target="M5AuZvBzM9_U9Xt27ztr-78" edge="1">
          <mxGeometry relative="1" as="geometry" />
        </mxCell>
        <mxCell id="M5AuZvBzM9_U9Xt27ztr-83" style="edgeStyle=orthogonalEdgeStyle;rounded=0;orthogonalLoop=1;jettySize=auto;html=1;exitX=0.25;exitY=1;exitDx=0;exitDy=0;entryX=0;entryY=0.5;entryDx=0;entryDy=0;" parent="1" source="M5AuZvBzM9_U9Xt27ztr-17" target="M5AuZvBzM9_U9Xt27ztr-80" edge="1">
          <mxGeometry relative="1" as="geometry" />
        </mxCell>
        <mxCell id="M5AuZvBzM9_U9Xt27ztr-17" value="DIPENTENTI" style="rounded=0;whiteSpace=wrap;html=1;" parent="1" vertex="1">
          <mxGeometry x="-510" y="170" width="120" height="60" as="geometry" />
        </mxCell>
        <mxCell id="M5AuZvBzM9_U9Xt27ztr-18" value="CONTIENE" style="rhombus;whiteSpace=wrap;html=1;" parent="1" vertex="1">
          <mxGeometry x="-110" y="290" width="80" height="80" as="geometry" />
        </mxCell>
        <mxCell id="M5AuZvBzM9_U9Xt27ztr-19" value="LAVORARE" style="rhombus;whiteSpace=wrap;html=1;" parent="1" vertex="1">
          <mxGeometry x="-300" y="160" width="80" height="80" as="geometry" />
        </mxCell>
        <mxCell id="M5AuZvBzM9_U9Xt27ztr-22" value="" style="endArrow=none;html=1;rounded=0;" parent="1" edge="1">
          <mxGeometry width="50" height="50" relative="1" as="geometry">
            <mxPoint x="-140" y="220" as="sourcePoint" />
            <mxPoint x="-140" y="180" as="targetPoint" />
          </mxGeometry>
        </mxCell>
        <mxCell id="M5AuZvBzM9_U9Xt27ztr-24" value="" style="endArrow=none;html=1;rounded=0;" parent="1" edge="1">
          <mxGeometry width="50" height="50" relative="1" as="geometry">
            <mxPoint x="-55" y="240" as="sourcePoint" />
            <mxPoint x="-85" y="240" as="targetPoint" />
          </mxGeometry>
        </mxCell>
        <mxCell id="M5AuZvBzM9_U9Xt27ztr-28" value="" style="endArrow=none;html=1;rounded=0;" parent="1" edge="1">
          <mxGeometry width="50" height="50" relative="1" as="geometry">
            <mxPoint x="285" y="410" as="sourcePoint" />
            <mxPoint x="255" y="410" as="targetPoint" />
          </mxGeometry>
        </mxCell>
        <mxCell id="M5AuZvBzM9_U9Xt27ztr-29" value="" style="endArrow=none;html=1;rounded=0;" parent="1" edge="1">
          <mxGeometry width="50" height="50" relative="1" as="geometry">
            <mxPoint x="285" y="240" as="sourcePoint" />
            <mxPoint x="255" y="240" as="targetPoint" />
          </mxGeometry>
        </mxCell>
        <mxCell id="M5AuZvBzM9_U9Xt27ztr-30" value="" style="ellipse;whiteSpace=wrap;html=1;aspect=fixed;" parent="1" vertex="1">
          <mxGeometry x="-100" y="50" width="20" height="20" as="geometry" />
        </mxCell>
        <mxCell id="M5AuZvBzM9_U9Xt27ztr-31" value="" style="ellipse;whiteSpace=wrap;html=1;aspect=fixed;" parent="1" vertex="1">
          <mxGeometry x="-100" y="80" width="20" height="20" as="geometry" />
        </mxCell>
        <mxCell id="M5AuZvBzM9_U9Xt27ztr-32" value="" style="ellipse;whiteSpace=wrap;html=1;aspect=fixed;" parent="1" vertex="1">
          <mxGeometry x="-100" y="110" width="20" height="20" as="geometry" />
        </mxCell>
        <mxCell id="M5AuZvBzM9_U9Xt27ztr-36" value="nome" style="text;html=1;align=left;verticalAlign=middle;resizable=0;points=[];autosize=1;strokeColor=none;fillColor=none;" parent="1" vertex="1">
          <mxGeometry x="-79" y="45" width="50" height="30" as="geometry" />
        </mxCell>
        <mxCell id="M5AuZvBzM9_U9Xt27ztr-37" value="indirizzo&lt;span style=&quot;color: rgba(0, 0, 0, 0); font-family: monospace; font-size: 0px;&quot;&gt;%3CmxGraphModel%3E%3Croot%3E%3CmxCell%20id%3D%220%22%2F%3E%3CmxCell%20id%3D%221%22%20parent%3D%220%22%2F%3E%3CmxCell%20id%3D%222%22%20value%3D%22nome%22%20style%3D%22text%3Bhtml%3D1%3Balign%3Dleft%3BverticalAlign%3Dmiddle%3Bresizable%3D0%3Bpoints%3D%5B%5D%3Bautosize%3D1%3BstrokeColor%3Dnone%3BfillColor%3Dnone%3B%22%20vertex%3D%221%22%20parent%3D%221%22%3E%3CmxGeometry%20x%3D%22-70%22%20y%3D%2245%22%20width%3D%2250%22%20height%3D%2230%22%20as%3D%22geometry%22%2F%3E%3C%2FmxCell%3E%3C%2Froot%3E%3C%2FmxGraphModel%3E&lt;/span&gt;" style="text;html=1;align=left;verticalAlign=middle;resizable=0;points=[];autosize=1;strokeColor=none;fillColor=none;" parent="1" vertex="1">
          <mxGeometry x="-79" y="75" width="70" height="30" as="geometry" />
        </mxCell>
        <mxCell id="M5AuZvBzM9_U9Xt27ztr-38" value="valutazione" style="text;html=1;align=left;verticalAlign=middle;resizable=0;points=[];autosize=1;strokeColor=none;fillColor=none;" parent="1" vertex="1">
          <mxGeometry x="-79" y="105" width="80" height="30" as="geometry" />
        </mxCell>
        <mxCell id="M5AuZvBzM9_U9Xt27ztr-39" value="" style="ellipse;whiteSpace=wrap;html=1;aspect=fixed;" parent="1" vertex="1">
          <mxGeometry x="270" y="65" width="20" height="20" as="geometry" />
        </mxCell>
        <mxCell id="M5AuZvBzM9_U9Xt27ztr-40" value="" style="ellipse;whiteSpace=wrap;html=1;aspect=fixed;" parent="1" vertex="1">
          <mxGeometry x="270" y="95" width="20" height="20" as="geometry" />
        </mxCell>
        <mxCell id="M5AuZvBzM9_U9Xt27ztr-41" value="" style="ellipse;whiteSpace=wrap;html=1;aspect=fixed;" parent="1" vertex="1">
          <mxGeometry x="270" y="125" width="20" height="20" as="geometry" />
        </mxCell>
        <mxCell id="M5AuZvBzM9_U9Xt27ztr-42" value="tipo" style="text;html=1;align=left;verticalAlign=middle;resizable=0;points=[];autosize=1;strokeColor=none;fillColor=none;" parent="1" vertex="1">
          <mxGeometry x="290" y="60" width="40" height="30" as="geometry" />
        </mxCell>
        <mxCell id="M5AuZvBzM9_U9Xt27ztr-43" value="capacità" style="text;html=1;align=left;verticalAlign=middle;resizable=0;points=[];autosize=1;strokeColor=none;fillColor=none;" parent="1" vertex="1">
          <mxGeometry x="290" y="90" width="70" height="30" as="geometry" />
        </mxCell>
        <mxCell id="M5AuZvBzM9_U9Xt27ztr-44" value="tariffa" style="text;html=1;align=left;verticalAlign=middle;resizable=0;points=[];autosize=1;strokeColor=none;fillColor=none;" parent="1" vertex="1">
          <mxGeometry x="290" y="120" width="50" height="30" as="geometry" />
        </mxCell>
        <mxCell id="M5AuZvBzM9_U9Xt27ztr-45" value="" style="ellipse;whiteSpace=wrap;html=1;aspect=fixed;" parent="1" vertex="1">
          <mxGeometry x="270" y="35" width="20" height="20" as="geometry" />
        </mxCell>
        <mxCell id="M5AuZvBzM9_U9Xt27ztr-46" value="numero" style="text;html=1;align=left;verticalAlign=middle;resizable=0;points=[];autosize=1;strokeColor=none;fillColor=none;" parent="1" vertex="1">
          <mxGeometry x="290" y="30" width="60" height="30" as="geometry" />
        </mxCell>
        <mxCell id="M5AuZvBzM9_U9Xt27ztr-51" value="" style="ellipse;whiteSpace=wrap;html=1;aspect=fixed;" parent="1" vertex="1">
          <mxGeometry x="350" y="300" width="20" height="20" as="geometry" />
        </mxCell>
        <mxCell id="M5AuZvBzM9_U9Xt27ztr-52" value="" style="ellipse;whiteSpace=wrap;html=1;aspect=fixed;" parent="1" vertex="1">
          <mxGeometry x="350" y="332.5" width="20" height="20" as="geometry" />
        </mxCell>
        <mxCell id="M5AuZvBzM9_U9Xt27ztr-53" value="check-out" style="text;html=1;align=left;verticalAlign=middle;resizable=0;points=[];autosize=1;strokeColor=none;fillColor=none;" parent="1" vertex="1">
          <mxGeometry x="370" y="327.5" width="80" height="30" as="geometry" />
        </mxCell>
        <mxCell id="M5AuZvBzM9_U9Xt27ztr-56" value="check-in" style="text;html=1;align=left;verticalAlign=middle;resizable=0;points=[];autosize=1;strokeColor=none;fillColor=none;" parent="1" vertex="1">
          <mxGeometry x="370" y="295" width="70" height="30" as="geometry" />
        </mxCell>
        <mxCell id="M5AuZvBzM9_U9Xt27ztr-57" value="" style="ellipse;whiteSpace=wrap;html=1;aspect=fixed;" parent="1" vertex="1">
          <mxGeometry x="270" y="535" width="20" height="20" as="geometry" />
        </mxCell>
        <mxCell id="M5AuZvBzM9_U9Xt27ztr-58" value="" style="ellipse;whiteSpace=wrap;html=1;aspect=fixed;" parent="1" vertex="1">
          <mxGeometry x="270" y="565" width="20" height="20" as="geometry" />
        </mxCell>
        <mxCell id="M5AuZvBzM9_U9Xt27ztr-59" value="cognome" style="text;html=1;align=left;verticalAlign=middle;resizable=0;points=[];autosize=1;strokeColor=none;fillColor=none;" parent="1" vertex="1">
          <mxGeometry x="290" y="530" width="70" height="30" as="geometry" />
        </mxCell>
        <mxCell id="M5AuZvBzM9_U9Xt27ztr-60" value="telefono" style="text;html=1;align=left;verticalAlign=middle;resizable=0;points=[];autosize=1;strokeColor=none;fillColor=none;" parent="1" vertex="1">
          <mxGeometry x="290" y="560" width="70" height="30" as="geometry" />
        </mxCell>
        <mxCell id="M5AuZvBzM9_U9Xt27ztr-61" value="" style="ellipse;whiteSpace=wrap;html=1;aspect=fixed;" parent="1" vertex="1">
          <mxGeometry x="270" y="505" width="20" height="20" as="geometry" />
        </mxCell>
        <mxCell id="M5AuZvBzM9_U9Xt27ztr-62" value="nome" style="text;html=1;align=left;verticalAlign=middle;resizable=0;points=[];autosize=1;strokeColor=none;fillColor=none;" parent="1" vertex="1">
          <mxGeometry x="290" y="500" width="50" height="30" as="geometry" />
        </mxCell>
        <mxCell id="M5AuZvBzM9_U9Xt27ztr-63" value="" style="ellipse;whiteSpace=wrap;html=1;aspect=fixed;" parent="1" vertex="1">
          <mxGeometry x="270" y="595" width="20" height="20" as="geometry" />
        </mxCell>
        <mxCell id="M5AuZvBzM9_U9Xt27ztr-64" value="email" style="text;html=1;align=left;verticalAlign=middle;resizable=0;points=[];autosize=1;strokeColor=none;fillColor=none;" parent="1" vertex="1">
          <mxGeometry x="290" y="590" width="50" height="30" as="geometry" />
        </mxCell>
        <mxCell id="M5AuZvBzM9_U9Xt27ztr-69" value="" style="ellipse;whiteSpace=wrap;html=1;aspect=fixed;" parent="1" vertex="1">
          <mxGeometry x="-450" y="247.5" width="20" height="20" as="geometry" />
        </mxCell>
        <mxCell id="M5AuZvBzM9_U9Xt27ztr-70" value="" style="ellipse;whiteSpace=wrap;html=1;aspect=fixed;" parent="1" vertex="1">
          <mxGeometry x="-450" y="277.5" width="20" height="20" as="geometry" />
        </mxCell>
        <mxCell id="M5AuZvBzM9_U9Xt27ztr-71" value="nome" style="text;html=1;align=left;verticalAlign=middle;resizable=0;points=[];autosize=1;strokeColor=none;fillColor=none;" parent="1" vertex="1">
          <mxGeometry x="-430" y="242.5" width="50" height="30" as="geometry" />
        </mxCell>
        <mxCell id="M5AuZvBzM9_U9Xt27ztr-72" value="cognome" style="text;html=1;align=left;verticalAlign=middle;resizable=0;points=[];autosize=1;strokeColor=none;fillColor=none;" parent="1" vertex="1">
          <mxGeometry x="-430" y="272.5" width="70" height="30" as="geometry" />
        </mxCell>
        <mxCell id="M5AuZvBzM9_U9Xt27ztr-73" value="" style="ellipse;whiteSpace=wrap;html=1;aspect=fixed;" parent="1" vertex="1">
          <mxGeometry x="-450" y="307.5" width="20" height="20" as="geometry" />
        </mxCell>
        <mxCell id="M5AuZvBzM9_U9Xt27ztr-74" value="posizione" style="text;html=1;align=left;verticalAlign=middle;resizable=0;points=[];autosize=1;strokeColor=none;fillColor=none;" parent="1" vertex="1">
          <mxGeometry x="-430" y="302.5" width="70" height="30" as="geometry" />
        </mxCell>
        <mxCell id="M5AuZvBzM9_U9Xt27ztr-78" value="" style="ellipse;whiteSpace=wrap;html=1;aspect=fixed;" parent="1" vertex="1">
          <mxGeometry x="-450" y="337.5" width="20" height="20" as="geometry" />
        </mxCell>
        <mxCell id="M5AuZvBzM9_U9Xt27ztr-79" value="telefono&lt;span style=&quot;color: rgba(0, 0, 0, 0); font-family: monospace; font-size: 0px;&quot;&gt;%3CmxGraphModel%3E%3Croot%3E%3CmxCell%20id%3D%220%22%2F%3E%3CmxCell%20id%3D%221%22%20parent%3D%220%22%2F%3E%3CmxCell%20id%3D%222%22%20value%3D%22%22%20style%3D%22ellipse%3BwhiteSpace%3Dwrap%3Bhtml%3D1%3Baspect%3Dfixed%3B%22%20vertex%3D%221%22%20parent%3D%221%22%3E%3CmxGeometry%20x%3D%22-450%22%20y%3D%22307.5%22%20width%3D%2220%22%20height%3D%2220%22%20as%3D%22geometry%22%2F%3E%3C%2FmxCell%3E%3CmxCell%20id%3D%223%22%20value%3D%22posizione%22%20style%3D%22text%3Bhtml%3D1%3Balign%3Dleft%3BverticalAlign%3Dmiddle%3Bresizable%3D0%3Bpoints%3D%5B%5D%3Bautosize%3D1%3BstrokeColor%3Dnone%3BfillColor%3Dnone%3B%22%20vertex%3D%221%22%20parent%3D%221%22%3E%3CmxGeometry%20x%3D%22-430%22%20y%3D%22302.5%22%20width%3D%2270%22%20height%3D%2230%22%20as%3D%22geometry%22%2F%3E%3C%2FmxCell%3E%3C%2Froot%3E%3C%2FmxGraphModel%3E&lt;/span&gt;" style="text;html=1;align=left;verticalAlign=middle;resizable=0;points=[];autosize=1;strokeColor=none;fillColor=none;" parent="1" vertex="1">
          <mxGeometry x="-430" y="332.5" width="70" height="30" as="geometry" />
        </mxCell>
        <mxCell id="M5AuZvBzM9_U9Xt27ztr-80" value="" style="ellipse;whiteSpace=wrap;html=1;aspect=fixed;" parent="1" vertex="1">
          <mxGeometry x="-450" y="367.5" width="20" height="20" as="geometry" />
        </mxCell>
        <mxCell id="M5AuZvBzM9_U9Xt27ztr-81" value="email" style="text;html=1;align=left;verticalAlign=middle;resizable=0;points=[];autosize=1;strokeColor=none;fillColor=none;" parent="1" vertex="1">
          <mxGeometry x="-430" y="362.5" width="50" height="30" as="geometry" />
        </mxCell>
        <mxCell id="M5AuZvBzM9_U9Xt27ztr-84" value="" style="ellipse;whiteSpace=wrap;html=1;aspect=fixed;" parent="1" vertex="1">
          <mxGeometry x="-70" y="500" width="20" height="20" as="geometry" />
        </mxCell>
        <mxCell id="M5AuZvBzM9_U9Xt27ztr-85" value="" style="ellipse;whiteSpace=wrap;html=1;aspect=fixed;" parent="1" vertex="1">
          <mxGeometry x="-70" y="530" width="20" height="20" as="geometry" />
        </mxCell>
        <mxCell id="M5AuZvBzM9_U9Xt27ztr-86" value="nome" style="text;html=1;align=left;verticalAlign=middle;resizable=0;points=[];autosize=1;strokeColor=none;fillColor=none;" parent="1" vertex="1">
          <mxGeometry x="-50" y="495" width="50" height="30" as="geometry" />
        </mxCell>
        <mxCell id="M5AuZvBzM9_U9Xt27ztr-87" value="descrizione" style="text;html=1;align=left;verticalAlign=middle;resizable=0;points=[];autosize=1;strokeColor=none;fillColor=none;" parent="1" vertex="1">
          <mxGeometry x="-50" y="525" width="80" height="30" as="geometry" />
        </mxCell>
        <mxCell id="M5AuZvBzM9_U9Xt27ztr-88" value="" style="ellipse;whiteSpace=wrap;html=1;aspect=fixed;" parent="1" vertex="1">
          <mxGeometry x="-70" y="557" width="20" height="20" as="geometry" />
        </mxCell>
        <mxCell id="M5AuZvBzM9_U9Xt27ztr-89" value="orario_apertura" style="text;html=1;align=left;verticalAlign=middle;resizable=0;points=[];autosize=1;strokeColor=none;fillColor=none;" parent="1" vertex="1">
          <mxGeometry x="-50" y="552" width="110" height="30" as="geometry" />
        </mxCell>
        <mxCell id="M5AuZvBzM9_U9Xt27ztr-93" value="" style="ellipse;whiteSpace=wrap;html=1;aspect=fixed;" parent="1" vertex="1">
          <mxGeometry x="-70" y="585" width="20" height="20" as="geometry" />
        </mxCell>
        <mxCell id="M5AuZvBzM9_U9Xt27ztr-94" value="orario_chiusura" style="text;html=1;align=left;verticalAlign=middle;resizable=0;points=[];autosize=1;strokeColor=none;fillColor=none;" parent="1" vertex="1">
          <mxGeometry x="-50" y="580" width="110" height="30" as="geometry" />
        </mxCell>
        <mxCell id="M5AuZvBzM9_U9Xt27ztr-96" value="" style="endArrow=none;html=1;rounded=0;" parent="1" edge="1">
          <mxGeometry width="50" height="50" relative="1" as="geometry">
            <mxPoint x="250" y="615" as="sourcePoint" />
            <mxPoint x="250" y="595" as="targetPoint" />
          </mxGeometry>
        </mxCell>
        <mxCell id="M5AuZvBzM9_U9Xt27ztr-97" value="" style="endArrow=none;html=1;rounded=0;" parent="1" edge="1">
          <mxGeometry width="50" height="50" relative="1" as="geometry">
            <mxPoint x="-470" y="387" as="sourcePoint" />
            <mxPoint x="-470" y="367" as="targetPoint" />
          </mxGeometry>
        </mxCell>
        <mxCell id="sy1ZNix-Lonua5stQmNR-1" value="" style="ellipse;whiteSpace=wrap;html=1;aspect=fixed;fillColor=#000000;" vertex="1" parent="1">
          <mxGeometry x="-123" y="30" width="20" height="20" as="geometry" />
        </mxCell>
        <mxCell id="sy1ZNix-Lonua5stQmNR-2" value="" style="endArrow=none;html=1;rounded=0;" edge="1" parent="1">
          <mxGeometry width="50" height="50" relative="1" as="geometry">
            <mxPoint x="-114" y="100" as="sourcePoint" />
            <mxPoint x="-114" y="50" as="targetPoint" />
          </mxGeometry>
        </mxCell>
        <mxCell id="sy1ZNix-Lonua5stQmNR-3" value="" style="ellipse;whiteSpace=wrap;html=1;aspect=fixed;fillColor=#000000;" vertex="1" parent="1">
          <mxGeometry x="250" y="10" width="20" height="20" as="geometry" />
        </mxCell>
        <mxCell id="sy1ZNix-Lonua5stQmNR-4" value="" style="curved=1;endArrow=none;html=1;rounded=0;endFill=0;" edge="1" parent="1" target="sy1ZNix-Lonua5stQmNR-3">
          <mxGeometry width="50" height="50" relative="1" as="geometry">
            <mxPoint x="150" y="220" as="sourcePoint" />
            <mxPoint x="300" y="130" as="targetPoint" />
            <Array as="points">
              <mxPoint x="190" y="200" />
              <mxPoint x="200" y="150" />
              <mxPoint x="230" y="50" />
            </Array>
          </mxGeometry>
        </mxCell>
      </root>
    </mxGraphModel>
  </diagram>
</mxfile>
